{"title":"ROCK ON 2 (2016) 720p DVDRip Hindi x264 AC3 5.1 Mafiaking M2Tv","magnet":"magnet:?xt=urn:btih:d5febb9017fd8739b784aa889c886caac0bd5ccf&dn=ROCK+ON+2+%282016%29+720p+DVDRip+Hindi+x264+AC3+5.1+Mafiaking+M2Tv&tr=udp%3A%2F%2Ftracker.leechers-paradise.org%3A6969&tr=udp%3A%2F%2Fzer0day.ch%3A1337&tr=udp%3A%2F%2Fopen.demonii.com%3A1337&tr=udp%3A%2F%2Ftracker.coppersurfer.tk%3A6969&tr=udp%3A%2F%2Fexodus.desync.com%3A6969","uploader":"mafiaaking","categoryP":"video","categoryS":"movies","size":"1270035543","seeders":"1","leechers":"3","description":"IMDB=http://www.imdb.com/title/tt2137241/\r\n\r\n\r\nRatings: 5.0/10\r\n\r\nGenere:      Drama, Music   \r\n\r\nGeneral\r\nFormat                                   : Matroska\r\nFormat version                           : Version 4 / Version 2\r\nFile size                                : 1.18 GiB\r\nDuration                                 : 2 h 26 min\r\nOverall bit rate                         : 1 151 kb/s\r\n\r\nVideo\r\nID                                       : 1\r\nFormat                                   : AVC\r\nFormat/Info                              : Advanced Video Codec\r\nFormat profile                           : <a class=\"__cf_email__\" href=\"/cdn-cgi/l/email-protection\" data-cfemail=\"531b3a343b131f607d62\">[email&#xA0;protected]</a><script data-cfhash=\"f9e31\" type=\"text/javascript\">/* <![CDATA[ */!function(t,e,r,n,c,a,p){try{t=document.currentScript||function(){for(t=document.getElementsByTagName('script'),e=t.length;e--;)if(t[e].getAttribute('data-cfhash'))return t[e]}();if(t&&(c=t.previousSibling)){p=t.parentNode;if(a=c.getAttribute('data-cfemail')){for(e='',r='0x'+a.substr(0,2)|0,n=2;a.length-n;n+=2)e+='%'+('0'+('0x'+a.substr(n,2)^r).toString(16)).slice(-2);p.replaceChild(document.createTextNode(decodeURIComponent(e)),c)}p.removeChild(t)}}catch(u){}}()/* ]]> */</script>\r\nFormat settings, CABAC                   : Yes\r\nFormat settings, ReFrames                : 4 frames\r\nCodec ID                                 : V_MPEG4/ISO/AVC\r\nDuration                                 : 2 h 26 min\r\nBit rate                                 : 925 kb/s\r\nWidth                                    : 1 280 pixels\r\nHeight                                   : 544 pixels\r\nDisplay aspect ratio                     : 2.35:1\r\nFrame rate mode                          : Constant\r\nFrame rate                               : 23.976 (24000/1001) FPS\r\nStream size                              : 968 MiB (80%)\r\nTitle                                    : Mafiaking\r\nLanguage                                 : Hindi\r\nDefault                                  : Yes\r\nForced                                   : No\r\n\r\nAudio\r\nID                                       : 2\r\nFormat                                   : AC-3\r\nFormat/Info                              : Audio Coding 3\r\nFormat settings, Endianness              : Big\r\nCodec ID                                 : A_AC3\r\nDuration                                 : 2 h 26 min\r\nBit rate mode                            : Constant\r\nBit rate                                 : 224 kb/s\r\nChannel(s)                               : 6 channels\r\nChannel positions                        : Front: L C R, Side: L R, LFE\r\nSampling rate                            : 48.0 kHz\r\nFrame rate                               : 31.250 FPS (1536 spf)\r\nBit depth                                : 16 bits\r\nCompression mode                         : Lossy\r\nStream size                              : 234 MiB (19%)\r\nTitle                                    : Mafiaking\r\nLanguage                                 : Hindi\r\nService kind                             : Complete Main\r\nDefault                                  : Yes\r\nForced                                   : No\r\n\r\n\r\n                                      \r\nScreens:-\r\n  <a href=\"\nhttps://www.lookimg.com/image/xtdpn\" rel=\"nofollow\" target=\"_NEW\">\nhttps://www.lookimg.com/image/xtdpn</a> <a href=\"\nhttps://www.lookimg.com/image/xtqvq\" rel=\"nofollow\" target=\"_NEW\">\nhttps://www.lookimg.com/image/xtqvq</a> <a href=\"\nhttps://www.lookimg.com/image/xtG0Q\" rel=\"nofollow\" target=\"_NEW\">\nhttps://www.lookimg.com/image/xtG0Q</a> <a href=\"\nhttps://www.lookimg.com/image/xtMCW\" rel=\"nofollow\" target=\"_NEW\">\nhttps://www.lookimg.com/image/xtMCW</a> <a href=\"\nhttps://www.lookimg.com/image/xtYrh\" rel=\"nofollow\" target=\"_NEW\">\nhttps://www.lookimg.com/image/xtYrh</a> <a href=\"\nhttps://www.lookimg.com/image/xtior\" rel=\"nofollow\" target=\"_NEW\">\nhttps://www.lookimg.com/image/xtior</a> <a href=\"\nhttps://www.lookimg.com/image/xtcwj\" rel=\"nofollow\" target=\"_NEW\">\nhttps://www.lookimg.com/image/xtcwj</a> <a href=\"\nhttps://www.lookimg.com/image/xtw3K\" rel=\"nofollow\" target=\"_NEW\">\nhttps://www.lookimg.com/image/xtw3K</a> <a href=\"\nhttps://www.lookimg.com/image/xtXvs\" rel=\"nofollow\" target=\"_NEW\">\nhttps://www.lookimg.com/image/xtXvs</a> <a href=\"\nhttps://www.lookimg.com/image/xtL5o\" rel=\"nofollow\" target=\"_NEW\">\nhttps://www.lookimg.com/image/xtL5o</a> <a href=\"\nhttps://www.lookimg.com/image/xt6AH\" rel=\"nofollow\" target=\"_NEW\">\nhttps://www.lookimg.com/image/xt6AH</a> <a href=\"\nhttps://www.lookimg.com/image/xtViV\" rel=\"nofollow\" target=\"_NEW\">\nhttps://www.lookimg.com/image/xtViV</a>","last_updated":"2017-05-24T11:18:19.927Z","parsed":{"xt":"urn:btih:d5febb9017fd8739b784aa889c886caac0bd5ccf","dn":"ROCK ON 2 (2016) 720p DVDRip Hindi x264 AC3 5.1 Mafiaking M2Tv","tr":["udp://exodus.desync.com:6969","udp://open.demonii.com:1337","udp://tracker.coppersurfer.tk:6969","udp://tracker.leechers-paradise.org:6969","udp://zer0day.ch:1337"],"infoHash":"d5febb9017fd8739b784aa889c886caac0bd5ccf","infoHashBuffer":{"type":"Buffer","data":[213,254,187,144,23,253,135,57,183,132,170,136,156,136,108,170,192,189,92,207]},"name":"ROCK ON 2 (2016) 720p DVDRip Hindi x264 AC3 5.1 Mafiaking M2Tv","announce":["udp://exodus.desync.com:6969","udp://open.demonii.com:1337","udp://tracker.coppersurfer.tk:6969","udp://tracker.leechers-paradise.org:6969","udp://zer0day.ch:1337"],"urlList":[]}}